:FULLY-SPECIFIED
:FORCE-ALL-JOINTS-BE-3DOF
:DEGREES
1325
root -1.5382 14.8501 6.94658 -5.47568 24.3586 2.36813
lfemur -0.39136 4.80694 -16.9199
ltibia 51.6176 -0 0
lfoot -25.6559 26.4244 0.152268
ltoes -14.8067 0 0
rfemur -48.7893 -8.46115 5.077
rtibia 47.3091 -0 0
rfoot 14.8368 6.63691 -0.0326741
rtoes 2.23856 -0 0
lowerback 12.4888 0.829334 -10.1651
upperback -2.04279 -0.441319 0.602322
thorax -9.2065 0.350063 6.50586
lowerneck -4.00914 -9.15962 -10.831
upperneck 13.9957 -12.5921 7.87451
head 6.13628 -6.22465 3.39223
lclavicle 5.00565e-14 -1.17283e-14 0
lhumerus -38.7666 -41.5274 113.64
lradius 110.278 -0 0
lwrist 42.7905 0 0
lhand -13.2927 46.631 -0.0308342
lfingers 7.12502 -0 0
lthumb 12.8107 76.2127 -0.0309476
rclavicle 5.00565e-14 -1.17283e-14 0
rhumerus 40.2447 17.9948 -50.1779
rradius 97.5157 -0 0
rwrist -16.1446 0 0
rhand -19.5046 -30.1895 0.206692
rfingers 7.12502 -0 0
rthumb 6.81227 -59.5043 0.198709
1326
root -1.554 14.8248 7.11666 -5.17888 24.5734 2.47172
lfemur 0.212086 4.61146 -16.6971
ltibia 50.9712 -0 0
lfoot -25.4688 26.6924 0.159275
ltoes -14.9713 0 0
rfemur -49.0747 -8.80703 5.13716
rtibia 47.9348 -0 0
rfoot 14.1996 6.65381 -0.034182
rtoes 1.96997 -0 0
lowerback 12.446 0.869994 -10.1798
upperback -2.0783 -0.390692 0.550106
thorax -9.23079 0.376237 6.44614
lowerneck -3.83571 -9.25673 -10.8513
upperneck 13.726 -12.7343 7.94776
head 6.04411 -6.29592 3.41964
lclavicle 5.00565e-14 -1.17283e-14 0
lhumerus -40.0747 -40.5925 113.582
lradius 109.992 -0 0
lwrist 43.3105 0 0
lhand -13.2117 46.5057 -0.0322522
lfingers 7.12502 -0 0
lthumb 12.8888 76.0821 -0.0323708
rclavicle 5.00565e-14 -1.17283e-14 0
rhumerus 41.2673 17.0895 -49.0895
rradius 96.9701 -0 0
rwrist -14.5602 0 0
rhand -20.3427 -30.2709 0.216258
rfingers 7.12502 -0 0
rthumb 6.00359 -59.5853 0.207901
1327
root -1.56981 14.7994 7.28675 -4.88115 24.7877 2.57671
lfemur 0.814601 4.41365 -16.4764
ltibia 50.3248 -0 0
lfoot -25.2816 26.9605 0.165408
ltoes -15.1358 0 0
rfemur -49.3608 -9.15261 5.19913
rtibia 48.5605 -0 0
rfoot 13.5623 6.67073 -0.0355018
rtoes 1.70138 -0 0
lowerback 12.4032 0.910643 -10.1945
upperback -2.11387 -0.340097 0.497858
thorax -9.2551 0.402385 6.38641
lowerneck -3.66219 -9.35379 -10.8719
upperneck 13.456 -12.8762 8.02174
head 5.95191 -6.36714 3.44717
lclavicle 5.00565e-14 -1.17283e-14 0
lhumerus -41.3663 -39.6587 113.497
lradius 109.707 -0 0
lwrist 43.8305 0 0
lhand -13.1307 46.3803 -0.0334929
lfingers 7.12502 -0 0
lthumb 12.9669 75.9516 -0.0336161
rclavicle 5.00565e-14 -1.17283e-14 0
rhumerus 42.267 16.1662 -48.0234
rradius 96.4245 -0 0
rwrist -12.9757 0 0
rhand -21.1809 -30.3524 0.224632
rfingers 7.12502 -0 0
rthumb 5.19491 -59.6665 0.215949
1328
root -1.58561 14.7741 7.45683 -4.58246 25.0016 2.68311
lfemur 1.41619 4.21354 -16.2579
ltibia 49.6784 -0 0
lfoot -25.0944 27.2285 0.170664
ltoes -15.3004 0 0
rfemur -49.6475 -9.49788 5.2629
rtibia 49.1861 -0 0
rfoot 12.9251 6.68766 -0.0366334
rtoes 1.43279 -0 0
lowerback 12.3604 0.951281 -10.2092
upperback -2.14948 -0.289534 0.445579
thorax -9.27944 0.428509 6.32666
lowerneck -3.48859 -9.45078 -10.8929
upperneck 13.1857 -13.0177 8.09645
head 5.85965 -6.43832 3.47482
lclavicle 5.00565e-14 -1.17283e-14 0
lhumerus -42.6426 -38.7267 113.386
lradius 109.422 -0 0
lwrist 44.3505 0 0
lhand -13.0497 46.2549 -0.0345564
lfingers 7.12502 -0 0
lthumb 13.0449 75.821 -0.0346835
rclavicle 5.00565e-14 -1.17283e-14 0
rhumerus 43.2442 15.2253 -46.9789
rradius 95.8789 -0 0
rwrist -11.3913 0 0
rhand -22.0191 -30.434 0.231814
rfingers 7.12502 -0 0
rthumb 4.38621 -59.7478 0.222849
1329
root -1.60142 14.7487 7.62691 -4.28282 25.2149 2.79093
lfemur 2.01686 4.01115 -16.0416
ltibia 49.032 -0 0
lfoot -24.9072 27.4965 0.175045
ltoes -15.4649 0 0
rfemur -49.9349 -9.84283 5.32849
rtibia 49.8118 -0 0
rfoot 12.2879 6.70461 -0.0375766
rtoes 1.16421 -0 0
lowerback 12.3176 0.991907 -10.224
upperback -2.18513 -0.239005 0.393269
thorax -9.30381 0.454606 6.26691
lowerneck -3.3149 -9.5477 -10.9141
upperneck 12.915 -13.1588 8.17188
head 5.76735 -6.50945 3.50259
lclavicle 5.00565e-14 -1.17283e-14 0
lhumerus -43.9048 -37.7968 113.251
lradius 109.137 -0 0
lwrist 44.8705 0 0
lhand -12.9687 46.1295 -0.0354427
lfingers 7.12502 -0 0
lthumb 13.123 75.6905 -0.0355731
rclavicle 5.00565e-14 -1.17283e-14 0
rhumerus 44.1993 14.2676 -45.9557
rradius 95.3332 -0 0
rwrist -9.80687 0 0
rhand -22.8573 -30.5157 0.2378
rfingers 7.12502 -0 0
rthumb 3.5775 -59.8292 0.228602
1330
root -1.61722 14.7233 7.797 -3.9822 25.4278 2.90018
lfemur 2.61661 3.80651 -15.8274
ltibia 48.3856 -0 0
lfoot -24.7199 27.7646 0.17855
ltoes -15.6294 0 0
rfemur -50.223 -10.1875 5.39591
rtibia 50.4375 -0 0
rfoot 11.6506 6.72156 -0.0383313
rtoes 0.895617 -0 0
lowerback 12.2748 1.03252 -10.2388
upperback -2.22083 -0.188507 0.340928
thorax -9.3282 0.480679 6.20714
lowerneck -3.14113 -9.64457 -10.9356
upperneck 12.6439 -13.2997 8.24805
head 5.675 -6.58054 3.53048
lclavicle 5.00565e-14 -1.17283e-14 0
lhumerus -45.1544 -36.8695 113.091
lradius 108.852 -0 0
lwrist 45.3905 0 0
lhand -12.8877 46.0042 -0.0361517
lfingers 7.12502 -0 0
lthumb 13.2011 75.5599 -0.0362847
rclavicle 5.00565e-14 -1.17283e-14 0
rhumerus 45.1327 13.2937 -44.9533
rradius 94.7876 -0 0
rwrist -8.22244 0 0
rhand -23.6955 -30.5974 0.242592
rfingers 7.12502 -0 0
rthumb 2.76879 -59.9106 0.233205
1331
root -1.63302 14.698 7.96708 -3.6806 25.6401 3.01085
lfemur 3.21545 3.59966 -15.6155
ltibia 47.7392 -0 0
lfoot -24.5327 28.0327 0.181178
ltoes -15.794 0 0
rfemur -50.5118 -10.5317 5.46517
rtibia 51.0631 -0 0
rfoot 11.0134 6.73852 -0.0388975
rtoes 0.627029 -0 0
lowerback 12.232 1.07313 -10.2536
upperback -2.25658 -0.138043 0.288555
thorax -9.35263 0.506726 6.14736
lowerneck -2.96727 -9.74137 -10.9574
upperneck 12.3725 -13.4401 8.32494
head 5.5826 -6.65159 3.55849
lclavicle 5.00565e-14 -1.17283e-14 0
lhumerus -46.3923 -35.9451 112.909
lradius 108.567 -0 0
lwrist 45.9105 0 0
lhand -12.8067 45.8788 -0.0366835
lfingers 7.12502 -0 0
lthumb 13.2792 75.4294 -0.0368184
rclavicle 5.00565e-14 -1.17283e-14 0
rhumerus 46.0449 12.3043 -43.9711
rradius 94.242 -0 0
rwrist -6.63802 0 0
rhand -24.5337 -30.6793 0.246186
rfingers 7.12502 -0 0
rthumb 1.96007 -59.9921 0.236659
1332
root -1.64883 14.6726 8.13716 -3.37801 25.8518 3.12297
lfemur 3.81339 3.3906 -15.4058
ltibia 47.0928 -0 0
lfoot -24.3454 28.3008 0.182931
ltoes -15.9585 0 0
rfemur -50.8013 -10.8757 5.53627
rtibia 51.6888 -0 0
rfoot 10.3762 6.75549 -0.0392749
rtoes 0.358442 -0 0
lowerback 12.1891 1.11372 -10.2685
upperback -2.29237 -0.0876109 0.236151
thorax -9.37708 0.532747 6.08757
lowerneck -2.79332 -9.8381 -10.9796
upperneck 12.1008 -13.5802 8.40256
head 5.49015 -6.72259 3.58661
lclavicle 5.00565e-14 -1.17283e-14 0
lhumerus -47.6197 -35.0241 112.704
lradius 108.282 -0 0
lwrist 46.4305 0 0
lhand -12.7257 45.7534 -0.037038
lfingers 7.12502 -0 0
lthumb 13.3572 75.2988 -0.0371742
rclavicle 5.00565e-14 -1.17283e-14 0
rhumerus 46.9363 11.2999 -43.0087
rradius 93.6964 -0 0
rwrist -5.05359 0 0
rhand -25.3719 -30.7612 0.248582
rfingers 7.12502 -0 0
rthumb 1.15134 -60.0737 0.238961
1333
root -1.66463 14.6473 8.30725 -3.07441 26.0631 3.23652
lfemur 4.41044 3.17937 -15.1983
ltibia 46.4464 -0 0
lfoot -24.1581 28.5689 0.183807
ltoes -16.1231 0 0
rfemur -51.0917 -11.2192 5.60922
rtibia 52.3145 -0 0
rfoot 9.73892 6.77246 -0.0394636
rtoes 0.0898535 -0 0
lowerback 12.1463 1.1543 -10.2834
upperback -2.32821 -0.0372118 0.183716
thorax -9.40155 0.558743 6.02777
lowerneck -2.61928 -9.93476 -11.002
upperneck 11.8287 -13.72 8.48091
head 5.39766 -6.79355 3.61486
lclavicle 5.00565e-14 -1.17283e-14 0
lhumerus -48.8375 -34.1069 112.478
lradius 107.997 -0 0
lwrist 46.9505 0 0
lhand -12.6447 45.628 -0.0372153
lfingers 7.12502 -0 0
lthumb 13.4353 75.1683 -0.0373522
rclavicle 5.00565e-14 -1.17283e-14 0
rhumerus 47.8075 10.2811 -42.0655
rradius 93.1508 -0 0
rwrist -3.46916 0 0
rhand -26.2101 -30.8431 0.249781
rfingers 7.12502 -0 0
rthumb 0.342614 -60.1553 0.240113
1334
root -1.68044 14.6219 8.47733 -2.76979 26.2738 3.35153
lfemur 5.00659 2.966 -14.9931
ltibia 45.8001 -0 0
lfoot -23.9709 28.8369 0.183807
ltoes -16.2876 0 0
rfemur -51.3828 -11.5625 5.68404
rtibia 52.9401 -0 0
rfoot 9.10168 6.78942 -0.0394636
rtoes -0.178733 0 0
lowerback 12.1034 1.19488 -10.2983
upperback -2.36409 0.0131544 0.131249
thorax -9.42606 0.584713 5.96796
lowerneck -2.44515 -10.0314 -11.0247
upperneck 11.5562 -13.8593 8.55999
head 5.30511 -6.86446 3.64323
lclavicle 5.00565e-14 -1.17283e-14 0
lhumerus -50.0468 -33.1938 112.231
lradius 107.711 -0 0
lwrist 47.4704 0 0
lhand -12.5636 45.5027 -0.0372153
lfingers 7.12502 -0 0
lthumb 13.5134 75.0377 -0.0373522
rclavicle 5.00565e-14 -1.17283e-14 0
rhumerus 48.6589 9.24856 -41.141
rradius 92.6052 -0 0
rwrist -1.88474 0 0
rhand -27.0483 -30.925 0.249781
rfingers 7.12502 -0 0
rthumb -0.466114 -60.2368 0.240113
